<svg id="Слой_1" data-name="Слой 1" xmlns="http://www.w3.org/2000/svg" xmlns:xlink="http://www.w3.org/1999/xlink" viewBox="0 0 414 126"><defs><style>.cls-1{fill:none;}.cls-2{clip-path:url(#clip-path);}.cls-3{fill:#fff;opacity:0;}.cls-4{fill:#ff6c0c;}.cls-5{fill:#686867;}</style><clipPath id="clip-path" transform="translate(-90 -351)"><rect class="cls-1" x="90" y="351" width="414" height="126"/></clipPath></defs><title>REVO+_ORNG</title><g class="cls-2"><rect class="cls-3" width="414" height="126"/><path class="cls-4" d="M108.15,397.79v40.82a3.49,3.49,0,0,1-1.09,2.42,4.66,4.66,0,0,1-3.51,1.15,5.27,5.27,0,0,1-3.62-1.09,3.26,3.26,0,0,1-1.21-2.47V396.85a29.33,29.33,0,0,1,.35-4.36,5.51,5.51,0,0,1,1.38-2.58,4.48,4.48,0,0,1,3.56-1.32h14.83a19.29,19.29,0,0,1,6.67,1.14,20.34,20.34,0,0,1,5.41,2.9,14,14,0,0,1,3.57,3.87,7.9,7.9,0,0,1,1.26,4.06,4.41,4.41,0,0,1-2.3,3.79,5.93,5.93,0,0,1-2.87.92,3.38,3.38,0,0,1-2.65-1.38q-.58-.69-1.15-1.44t-1.27-1.55a11.12,11.12,0,0,0-7.93-3.1Z" transform="translate(-90 -351)"/><path class="cls-4" d="M152.88,419.75v2.42a9.77,9.77,0,0,0,3.22,7.76,12.11,12.11,0,0,0,8.28,2.82h16.1a4.2,4.2,0,0,1,2.59.92,4,4,0,0,1,1.21,3.33,4.43,4.43,0,0,1-1.27,3.45,3.79,3.79,0,0,1-2.53,1.15H163.69a23.66,23.66,0,0,1-8.05-1.32,18.7,18.7,0,0,1-6.38-3.79,17.27,17.27,0,0,1-4.25-6.14,21.66,21.66,0,0,1-1.55-8.49V409a21.54,21.54,0,0,1,1.67-8.66,18.61,18.61,0,0,1,4.49-6.43,19.4,19.4,0,0,1,6.67-4,24.59,24.59,0,0,1,8.34-1.38h4a23,23,0,0,1,7.82,1.32,19,19,0,0,1,6.5,3.9,18.61,18.61,0,0,1,4.49,6.41,21.83,21.83,0,0,1,1.67,8.77v5.73A6.35,6.35,0,0,1,188,418q-1.09,1.78-4.08,1.78Zm26.79-10.81q0-5.86-3.34-8.51a12.73,12.73,0,0,0-8.16-2.65h-4a12.28,12.28,0,0,0-7.88,2.7q-3.39,2.7-3.39,8.45v3h26.79Z" transform="translate(-90 -351)"/><path class="cls-4" d="M219.12,431.83l14.15-41.17a4.12,4.12,0,0,1,4.25-3,5.7,5.7,0,0,1,3.45,1.09,3.57,3.57,0,0,1,1.5,3,4,4,0,0,1-.35,1.61l-15.75,44q-1.5,4.14-5.29,4.14h-4.6q-3.8,0-5.29-4.14l-15.87-44a6.39,6.39,0,0,1-.23-1.5,3.83,3.83,0,0,1,1.38-3.1,5.39,5.39,0,0,1,3.56-1.15,4.51,4.51,0,0,1,2.65.81,4.83,4.83,0,0,1,1.72,2.42l14.37,40.94Z" transform="translate(-90 -351)"/><path class="cls-4" d="M334.24,388.47q9.34,0,15,5T355,408.25v13.11a22.79,22.79,0,0,1-1.56,8.8,18,18,0,0,1-4.33,6.32,17.73,17.73,0,0,1-6.52,3.85,24.87,24.87,0,0,1-8,1.26h-17.3V463a3.48,3.48,0,0,1-1.09,2.64,5,5,0,0,1-3.51,1,5.67,5.67,0,0,1-3.62-1,3.16,3.16,0,0,1-1.21-2.59V393.53a6.23,6.23,0,0,1,1.1-3.34,3.74,3.74,0,0,1,3.4-1.73Zm11.32,20q0-5.62-3.22-8.31a12.29,12.29,0,0,0-8.16-2.69h-16.9v35h16.9a12.34,12.34,0,0,0,8.11-2.69q3.28-2.69,3.28-8.54Z" transform="translate(-90 -351)"/><path class="cls-4" d="M374.42,423.2a11.85,11.85,0,0,0,1.94,7.07Q378.3,433,383,433h1.71a3.77,3.77,0,0,1,2.79,1.09,4.65,4.65,0,0,1,1.08,3.39,4.9,4.9,0,0,1-1.15,3.51,3.68,3.68,0,0,1-2.76,1.21h-2q-8.62,0-13.17-4.6T365,423.2V365.13a3.71,3.71,0,0,1,1.11-2.64,4.94,4.94,0,0,1,3.67-1.15,4.78,4.78,0,0,1,3.49,1.15,3.62,3.62,0,0,1,1.17,2.64Z" transform="translate(-90 -351)"/><path class="cls-4" d="M399,387.78a4.83,4.83,0,0,1,3.58,1.21,3.55,3.55,0,0,1,1.19,2.47v29.9a12.14,12.14,0,0,0,1,5.12,9.5,9.5,0,0,0,2.6,3.45,9.89,9.89,0,0,0,3.75,1.9,17,17,0,0,0,4.45.58h16.17V391.69a3.67,3.67,0,0,1,1.09-2.47A4.68,4.68,0,0,1,436.4,388a4.9,4.9,0,0,1,3.51,1.15,3.45,3.45,0,0,1,1.21,2.53v44.74a6.66,6.66,0,0,1-1.09,3.33q-1.09,1.84-4.08,1.84H415.13q-9.55,0-15.18-5.06t-5.63-15.18v-29.9a3.71,3.71,0,0,1,1.08-2.47A4.6,4.6,0,0,1,399,387.78Z" transform="translate(-90 -351)"/><path class="cls-4" d="M456,441.6a4,4,0,0,1-2.41-1q-1.27-1-1.27-3.69a4,4,0,0,1,1.5-3.52,4.78,4.78,0,0,1,2.18-1h23.58a7,7,0,0,0,4.54-1.44,5,5,0,0,0,1.78-4.09,4.27,4.27,0,0,0-1.67-3.52,14.19,14.19,0,0,0-5-2.25l-13.57-4a46.57,46.57,0,0,1-5.52-1.84,16.36,16.36,0,0,1-4.43-2.65,11.42,11.42,0,0,1-3-4,13.84,13.84,0,0,1-1.09-5.82,14.29,14.29,0,0,1,3.86-10.2q3.86-4.09,11.66-4.09H488.5a4.6,4.6,0,0,1,2.36,1q1.44,1,1.44,3.62T491,396.69a4.24,4.24,0,0,1-2.47,1H467.11a7.73,7.73,0,0,0-4.37,1.15,4.22,4.22,0,0,0-1.72,3.79,3.58,3.58,0,0,0,1.67,3.11,17.17,17.17,0,0,0,4.79,2.07l13.62,3.79a47.29,47.29,0,0,1,5.71,2.07,16.72,16.72,0,0,1,4.5,2.88,11.72,11.72,0,0,1,2.94,4.2,15.24,15.24,0,0,1,1,5.92,16.63,16.63,0,0,1-1,5.69,13.38,13.38,0,0,1-7.88,8,18.33,18.33,0,0,1-6.9,1.21Z" transform="translate(-90 -351)"/><path class="cls-4" d="M272.2,442.17a26.86,26.86,0,0,1-19.66-8.45,27.13,27.13,0,0,1-3.45-32.82l.31-.5,0,0a3.88,3.88,0,0,1,6.28,4.54,19.38,19.38,0,0,0,2.46,23.41,19.16,19.16,0,0,0,14,6,19.39,19.39,0,0,0,9.2-2.32l.09-.05.12-.05h0l.27-.12.11,0h0a3.88,3.88,0,0,1,3.55,6.82v0l-.42.23a27.15,27.15,0,0,1-12.93,3.28Z" transform="translate(-90 -351)"/><path class="cls-5" d="M286.73,426.53l.22-.29a18.29,18.29,0,0,0,2.89-5.59l.26-.82,7.65,6.53-.18.39a27.76,27.76,0,0,1-5.55,8l-.54.54Z" transform="translate(-90 -351)"/><path class="cls-5" d="M290.51,415.09v-.37c0-.6,0-1.21-.08-1.82a18.59,18.59,0,0,0-1-4.38l-.28-.8,10,.61.09.42a27.47,27.47,0,0,1,.51,3.26,28.09,28.09,0,0,1-.12,6.47l-.1.76Z" transform="translate(-90 -351)"/><path class="cls-5" d="M286.81,403.71c-.36-.47-.76-.93-1.19-1.38a18.61,18.61,0,0,0-3.46-2.86l-.72-.46,8.28-5.7.33.27a27.55,27.55,0,0,1,2.41,2.26,28,28,0,0,1,3.88,5.17l.38.66L287,404Z" transform="translate(-90 -351)"/><path class="cls-5" d="M255.71,392.51l.35-.25a27.6,27.6,0,0,1,8.81-4.15l.73-.2-.26,10L265,398a18.43,18.43,0,0,0-5.3,3.4l-.63.58Z" transform="translate(-90 -351)"/><path class="cls-5" d="M276.88,397.16a18.59,18.59,0,0,0-4.68-.6c-.53,0-1.06,0-1.59.07l-.85.07,3.1-9.56.43,0a27.78,27.78,0,0,1,9.52,2.06l.71.29-6.27,7.75Z" transform="translate(-90 -351)"/></g></svg>