<?xml version="1.0" encoding="UTF-8"?>
<svg width="107px" height="23px" viewBox="0 0 107 23" version="1.1" xmlns="http://www.w3.org/2000/svg" xmlns:xlink="http://www.w3.org/1999/xlink">
    <!-- Generator: Sketch 46.2 (44496) - http://www.bohemiancoding.com/sketch -->
    <title>logo</title>
    <desc>Created with Sketch.</desc>
    <defs></defs>
    <g id="Page-1" stroke="none" stroke-width="1" fill="none" fill-rule="evenodd">
        <g id="logo" fill-rule="nonzero">
            <path d="M8.96874,5.15676508 C8.96874,4.28057593 8.71336669,3.63273405 8.20333334,3.21230362 C7.69258669,2.79234113 7.04559334,2.58200894 6.26164,2.58200894 L2.24224444,2.58200894 L2.24224444,10.7613341 L6.26164,10.7613341 C7.02752221,10.7613341 7.67023555,10.5517038 8.18954221,10.1312734 C8.70908669,9.71131093 8.96874,9.04545396 8.96874,8.13346858 L8.96874,5.15676508 L8.96874,5.15676508 L8.96874,5.15676508 Z M6.27709555,0.483366299 C7.75702442,0.483366299 8.94971776,0.873615567 9.85446221,1.65388014 C10.7584933,2.43414472 11.21146,3.58687741 11.21146,5.11114241 L11.21146,8.17838934 C11.21146,8.9680124 11.0878156,9.65399016 10.8407644,10.2367905 C10.5937133,10.8198248 10.2510756,11.3130174 9.81261334,11.7163686 C9.3732,12.1201877 8.85674669,12.4205954 8.26277776,12.6180597 C7.66833334,12.8152899 7.0329911,12.9137882 6.35651334,12.9137882 L2.24224444,12.9137882 L2.24224444,17.9182437 C2.24224444,18.1692854 2.15545556,18.3756402 1.98259111,18.5370742 C1.80901333,18.6987422 1.53128888,18.7792253 1.14846667,18.7792253 C0.765406669,18.7792253 0.47840889,18.7029535 0.286997779,18.5506441 C0.0958244442,18.3981006 0,18.195957 0,17.9451494 L0,1.66744996 C0,1.41640831 0.0870266669,1.15600817 0.26012889,0.887185386 C0.433706669,0.617894673 0.70310889,0.483366299 1.06904888,0.483366299 L6.27709555,0.483366299 L6.27709555,0.483366299 L6.27709555,0.483366299 Z" id="Fill-2" fill="#EC6B25"></path>
            <path d="M21.6513311,5.27257643 C21.6513311,4.35801743 21.3864467,3.69450011 20.8581044,3.2815565 C20.3290489,2.86931476 19.6825311,2.66272597 18.9168867,2.66272597 L17.9595933,2.66272597 C17.2486377,2.66272597 16.6239956,2.87376005 16.0866177,3.29512631 C15.5490023,3.71672655 15.2800756,4.37603256 15.2800756,5.27257643 L15.2800756,5.97212398 L21.6513311,5.97212398 L21.6513311,5.27257643 L21.6513311,5.27257643 L21.6513311,5.27257643 Z M15.2800756,7.80170989 L15.2800756,8.36672908 C15.2800756,9.13833701 15.5349733,9.74359773 16.04572,10.1827451 C16.5557533,10.6225945 17.21202,10.8422851 18.01452,10.8422851 L21.8425044,10.8422851 C22.06126,10.8422851 22.2667,10.9138776 22.4578733,11.0575306 C22.6492844,11.2011834 22.7448711,11.4608817 22.7448711,11.8375612 C22.7448711,12.1966934 22.6445289,12.4657501 22.4440823,12.6449653 C22.2433977,12.8241806 22.0431889,12.9137882 21.8425044,12.9137882 L17.8504533,12.9137882 C17.1570933,12.9137882 16.5196111,12.8113125 15.9361044,12.6051918 C15.35236,12.3993048 14.8466067,12.1040443 14.4186067,11.7191762 C13.9898933,11.3343081 13.6532,10.855387 13.4071,10.2828811 C13.161,9.71037508 13.0378311,9.04779358 13.0378311,8.2963064 L13.0378311,5.28895382 C13.0378311,4.53746661 13.1697977,3.86178324 13.4339689,3.26237157 C13.69814,2.66272597 14.0536177,2.16157853 14.50064,1.75892926 C14.9469489,1.35604602 15.4755289,1.04768359 16.0866177,0.832906111 C16.6974689,0.617894673 17.3582533,0.510271976 18.0692089,0.510271976 L19.0260267,0.510271976 C19.6825311,0.510271976 20.30218,0.613449391 20.8854489,0.81886837 C21.4687177,1.02452131 21.9837444,1.32843846 22.4305289,1.73038585 C22.8768377,2.13233323 23.2325533,2.63254482 23.4967244,3.23125457 C23.7611333,3.82996436 23.8933377,4.51336849 23.8933377,5.28193494 L23.8933377,6.62207151 C23.8933377,6.85463015 23.8065489,7.10941517 23.6339223,7.38642665 C23.4601067,7.66343811 23.1369667,7.80170989 22.6628377,7.80170989 L15.2800756,7.80170989 L15.2800756,7.80170989 L15.2800756,7.80170989 Z" id="Fill-3" fill="#EC6B25"></path>
            <path d="M27.9945289,7.26359637 L27.9945289,10.7613341 L32.460471,10.7613341 C33.0413624,10.7613341 33.5271424,10.6106623 33.9173355,10.307915 C34.307291,10.0051677 34.5027445,9.56040519 34.5027445,8.97269165 C34.5027445,8.59881975 34.3301176,8.22050259 33.9855776,7.83797406 C33.6400866,7.45544556 33.1138845,7.26359637 32.40602,7.26359637 L27.9945289,7.26359637 L27.9945289,7.26359637 L27.9945289,7.26359637 Z M27.9945289,2.52819759 L27.9945289,5.29948212 L32.4859134,5.29948212 C32.88538,5.29948212 33.2344376,5.16495373 33.5340376,4.89589699 C33.8331624,4.62684024 33.9832,4.28642499 33.9832,3.87348134 C33.9832,3.47925471 33.8243645,3.15638661 33.5066934,2.90511101 C33.1890224,2.65406937 32.758169,2.52819759 32.2138955,2.52819759 L27.9945289,2.52819759 L27.9945289,2.52819759 L27.9945289,2.52819759 Z M26.8489156,12.9137882 C26.4468333,12.9137882 26.1634023,12.8197352 25.9990977,12.6311615 C25.8345556,12.4430558 25.7525223,12.1697877 25.7525223,11.8106555 L25.7525223,1.55982726 C25.7525223,1.16536667 25.83408,0.882740099 25.9976711,0.712181516 C26.1615,0.541856898 26.4435044,0.456460627 26.8434467,0.456460627 L32.5708,0.456460627 C33.0798824,0.456460627 33.55734,0.528521039 34.0026976,0.671706025 C34.4480555,0.815592893 34.83492,1.0308383 35.1618645,1.31744222 C35.4892845,1.60451408 35.7484624,1.94984257 35.93916,2.35342769 C36.12962,2.75701282 36.2254445,3.22774515 36.2254445,3.76585864 C36.2254445,4.17880226 36.1125,4.62262893 35.8878,5.09780654 C35.6623866,5.57321812 35.2978734,5.93656173 34.7935466,6.1873694 C35.3508976,6.4026148 35.8157534,6.74373197 36.1871624,7.20978505 C36.5592845,7.67654001 36.744989,8.28624601 36.744989,9.03937093 C36.744989,9.70335623 36.6261,10.277032 36.3887976,10.7613341 C36.15102,11.2456363 35.8400066,11.6492215 35.4562334,11.9723235 C35.0726976,12.2949576 34.6292424,12.5328974 34.12658,12.6852069 C33.6241555,12.8377504 33.1081776,12.9137882 32.578409,12.9137882 L26.8489156,12.9137882 L26.8489156,12.9137882 L26.8489156,12.9137882 Z" id="Fill-4" fill="#EC6B25"></path>
            <path d="M62.9949421,12.9675995 C62.6071266,12.9675995 62.32536,12.8779919 62.1501179,12.6985427 C61.9751134,12.5195615 61.8873734,12.3312217 61.8873734,12.1335236 L61.8873734,2.6358203 L55.2155666,2.6358203 L55.2155666,12.1335236 C55.2155666,12.3132066 55.1287779,12.4968672 54.9556755,12.6852069 C54.7823355,12.8733126 54.4948621,12.9675995 54.0942066,12.9675995 C53.7294555,12.9675995 53.4517313,12.8733126 53.2605579,12.6852069 C53.0686713,12.4968672 52.9730845,12.3043161 52.9730845,12.1066179 L52.9730845,1.69412167 C52.9730845,1.4613291 53.0598734,1.20116292 53.2334513,0.913857098 C53.4067913,0.62725317 53.7313579,0.483366299 54.2064379,0.483366299 L62.8960266,0.483366299 C63.3711066,0.483366299 63.6956734,0.62725317 63.8690134,0.913857098 C64.0425913,1.20116292 64.1296179,1.4613291 64.1296179,1.69412167 L64.1296179,12.1335236 C64.1296179,12.3132066 64.04164,12.4968672 63.8666355,12.6852069 C63.6911555,12.8733126 63.4008287,12.9675995 62.9949421,12.9675995" id="Fill-5" fill="#EC6B25"></path>
            <path d="M76.5984466,12.9675995 C76.1977913,12.9675995 75.9103179,12.882905 75.7374534,12.7121125 C75.5638755,12.5417879 75.4773245,12.2505048 75.4773245,11.8375612 L75.4773245,2.71653732 L71.0477621,2.71653732 L70.4459466,9.03937093 C70.3917334,9.50612593 70.3135045,9.98106957 70.2138755,10.4653717 C70.1135334,10.9496738 69.9401934,11.3848439 69.6940934,11.7704139 C69.4479934,12.1564518 69.1103487,12.4744067 68.6825866,12.7254484 C68.2538734,12.97649 67.7022287,13.1023618 67.0278913,13.1023618 L66.72734,13.1023618 C66.4172779,13.1023618 66.1711779,13.0214109 65.98904,12.8602108 C65.8064266,12.6985427 65.7155955,12.4388445 65.7155955,12.0797123 C65.7155955,11.7392969 65.8111821,11.4838101 66.0025934,11.3130174 C66.1942421,11.1426929 66.4172779,11.0575306 66.6726513,11.0575306 L66.8914066,11.0575306 C67.36506,11.0575306 67.6934313,10.8689569 67.8758066,10.4922774 C68.0579445,10.115598 68.1944287,9.55993725 68.2859734,8.82412553 L68.9695845,1.58649897 C69.0057266,1.17425724 69.1060687,0.882740099 69.2706113,0.712181516 C69.43444,0.541856898 69.7257179,0.456460627 70.1453955,0.456460627 L76.6257913,0.456460627 C77.0452313,0.456460627 77.3457821,0.541856898 77.5281579,0.712181516 C77.7102955,0.882740099 77.80184,1.17425724 77.80184,1.58649897 L77.80184,11.8375612 C77.80184,12.2505048 77.7060155,12.5417879 77.5148421,12.7121125 C77.3234313,12.882905 77.0178866,12.9675995 76.5984466,12.9675995" id="Fill-6" fill="#EC6B25"></path>
            <path d="M92.7863579,5.21876508 C92.7863579,4.28642496 92.5309845,3.60910385 92.0209513,3.18750361 C91.5102045,2.76613735 90.8632113,2.55510328 90.0792579,2.55510328 L89.6144021,2.55510328 C88.8304487,2.55510328 88.1877355,2.77034867 87.6867379,3.20083946 C87.1852645,3.63133026 86.9348845,4.30397217 86.9348845,5.21876508 L86.9348845,8.28624601 C86.9348845,9.1832578 87.1897821,9.83788456 87.7005287,10.2503603 C88.2105621,10.6630699 88.8492334,10.8689569 89.6144021,10.8689569 L89.9701179,10.8689569 C90.7721421,10.8689569 91.4419621,10.6672812 91.9798155,10.2636961 C92.5174313,9.86011099 92.7863579,9.20080498 92.7863579,8.28624601 L92.7863579,5.21876508 L92.7863579,5.21876508 L92.7863579,5.21876508 Z M89.4779179,12.9137882 C88.8216513,12.9137882 88.2062821,12.8152899 87.6318113,12.6180597 C87.0578155,12.4205954 86.5520621,12.1295462 86.1147887,11.7432743 C85.6772779,11.3579382 85.33036,10.87387 85.0752245,10.2906018 C84.8198513,9.70780151 84.69264,9.03071434 84.69264,8.25910635 L84.69264,7.45193611 L82.7240779,7.45193611 L82.7240779,11.9454178 C82.7240779,12.3578935 82.64038,12.64052 82.4746487,12.7928296 C82.3084421,12.9449051 82.0223955,13.0214109 81.6165087,13.0214109 C81.4500645,13.0214109 81.3116779,12.9945051 81.2015866,12.9409278 C80.7210379,12.8693353 80.4813579,12.5371087 80.4813579,11.9454178 L80.4813579,1.47887628 C80.4813579,0.779328724 80.8599,0.429554949 81.6165087,0.429554949 C81.7087666,0.429554949 81.78224,0.434234196 81.8374045,0.443124768 C81.8932821,0.452249302 81.9484466,0.465819118 82.0036113,0.483366299 C82.4834466,0.572505972 82.7240779,0.902626903 82.7240779,1.47349514 L82.7240779,5.29948212 L84.6940666,5.29948212 C84.7116621,5.156999 84.7209355,5.01872724 84.7209355,4.88490077 C84.7209355,4.75130824 84.7385313,4.62192701 84.7749113,4.4969911 C84.9201934,3.19499041 85.4399755,2.20088421 86.3333066,1.51373667 C87.2259245,0.826823088 88.3382487,0.483366299 89.6693287,0.483366299 L90.1341845,0.483366299 C90.84514,0.483366299 91.5014066,0.586777676 92.1027466,0.792898543 C92.7045621,0.99925337 93.2191134,1.29989505 93.6478266,1.69412167 C94.0760645,2.08905019 94.4137087,2.5866882 94.6598087,3.18750361 C94.9059087,3.78855299 95.0290779,4.47476467 95.0290779,5.24567074 L95.0290779,8.25910635 C95.0290779,9.03071434 94.9009155,9.70780151 94.64578,10.2906018 C94.3904066,10.87387 94.0399221,11.3579382 93.5931379,11.7432743 C93.1463534,12.1295462 92.6265713,12.4205954 92.0345045,12.6180597 C91.4419621,12.8152899 90.8177955,12.9137882 90.1615287,12.9137882 L89.4779179,12.9137882 L89.4779179,12.9137882 L89.4779179,12.9137882 Z" id="Fill-7" fill="#EC6B25"></path>
            <path d="M102.302224,12.9137882 C101.57296,12.9137882 100.907896,12.8152899 100.30608,12.6189956 C99.70474,12.4219993 99.1849579,12.1311839 98.7474466,11.7460819 C98.3101734,11.3614476 97.9725287,10.8783153 97.7361779,10.2964509 C97.4988755,9.71458642 97.3802245,9.03890299 97.3802245,8.26916674 L97.3802245,5.23561041 C97.3802245,4.46634205 97.5033934,3.78621337 97.7494934,3.19545832 C97.9955934,2.6047033 98.3375179,2.10776718 98.7750287,1.70511791 C99.21254,1.30223467 99.7275666,1.00276281 100.320109,0.805766477 C100.912176,0.609238067 101.554413,0.510271976 102.247773,0.510271976 L105.911929,0.510271976 C106.094067,0.510271976 106.285477,0.603622969 106.485924,0.789623069 C106.686609,0.975389209 106.786951,1.24561577 106.786951,1.60006879 C106.786951,1.972069 106.691364,2.24252952 106.499953,2.41051452 C106.308067,2.57873347 106.112137,2.66272597 105.911929,2.66272597 L102.329569,2.66272597 C101.545616,2.66272597 100.898147,2.88732986 100.388351,3.33536785 C99.8773666,3.78387374 99.6224687,4.4385005 99.6224687,5.29948212 L99.6224687,8.17838934 C99.6224687,9.03937093 99.8773666,9.6853411 100.388351,10.115598 C100.898147,10.5460888 101.545616,10.7613341 102.329569,10.7613341 L106.048651,10.7613341 C106.249097,10.7613341 106.445264,10.8467304 106.636437,11.017055 C106.827849,11.1876136 106.923436,11.4608817 106.923436,11.8375612 C106.923436,12.1966934 106.823093,12.4657501 106.623123,12.6449653 C106.421963,12.8241806 106.221753,12.9137882 106.021069,12.9137882 L102.302224,12.9137882" id="Fill-8" fill="#EC6B25"></path>
            <path d="M44.5091466,13.0466788 C42.72296,13.0466788 41.0620821,12.3447916 39.8332466,11.0703985 C37.8271155,8.99047281 37.489471,5.83268242 39.0117245,3.39128485 L39.0851979,3.2740697 L39.0949466,3.2803867 C39.269,3.07660543 39.5246113,2.95845443 39.8013845,2.95845443 C39.9713955,2.95845443 40.1380779,3.00477899 40.28336,3.09251487 C40.7170666,3.3543188 40.8540266,3.91465873 40.5879534,4.34187408 C39.5032113,6.09472029 39.7474087,8.34146113 41.1731245,9.81940155 C42.0495734,10.7283455 43.2337066,11.228557 44.50772,11.228557 C45.2712245,11.228557 46.02712,11.0406853 46.6945621,10.6855303 L46.7173887,10.6733643 L46.7452087,10.6611982 L46.7447334,10.6604964 C46.7656579,10.6506699 46.7870579,10.6413114 46.8086955,10.6328888 L46.8348513,10.6214246 L46.8362779,10.6230624 C46.9347179,10.5889039 47.0372,10.5715906 47.1427734,10.5715906 C47.4816066,10.5715906 47.7923821,10.7531455 47.9535955,11.0458325 C48.0715334,11.2589722 48.0979266,11.5048667 48.0277821,11.7374252 C47.9688134,11.9339536 47.8473087,12.1014707 47.6803887,12.2184519 L47.6822913,12.2250029 L47.5838513,12.2792821 C46.6458179,12.7813654 45.5827134,13.0466788 44.5091466,13.0466788" id="Fill-9" fill="#EC6B25"></path>
            <path d="M47.9633445,9.38820886 L48.0158934,9.31989187 C48.3209621,8.92519727 48.5520821,8.485348 48.7035466,8.01250998 L48.7648934,7.82136276 L50.5848445,9.34890319 L50.5422821,9.4401485 C50.2170021,10.1352508 49.7725955,10.7646095 49.2209513,11.3102099 L49.0932645,11.4365497 L47.9633445,9.38820886" id="Fill-10" fill="#5D5E5C"></path>
            <path d="M48.8633334,6.71214703 L48.8638087,6.62628285 C48.8642845,6.48660727 48.8573887,6.34318837 48.84336,6.20047128 C48.8088821,5.85022961 48.7318421,5.5049011 48.6134287,5.17478015 L48.5461379,4.9862065 L50.9312866,5.12822165 L50.9531621,5.22625191 C51.0088021,5.47869733 51.0497,5.73535406 51.0744287,5.98943719 C51.1241245,6.49315823 51.1139,7.00226041 51.0447066,7.50247197 L51.0204534,7.67934755 L48.8633334,6.71214703" id="Fill-11" fill="#5D5E5C"></path>
            <path d="M47.9823666,4.04825127 C47.8955779,3.93828894 47.8007045,3.82949641 47.6998866,3.72491523 C47.4533113,3.46966226 47.1765379,3.24435648 46.8769379,3.05601677 L46.7057379,2.94839404 L48.6743,1.61504238 L48.7527666,1.67914808 C48.9544021,1.84409157 49.1470021,2.02166902 49.3258113,2.20696723 C49.6798621,2.57428819 49.9904,2.98161672 50.2491021,3.41748866 L50.3406466,3.57166985 L48.0358666,4.1158664 L47.9823666,4.04825127" id="Fill-12" fill="#5D5E5C"></path>
            <path d="M40.5889045,1.42787247 L40.6721266,1.3698498 C41.3091334,0.925087294 42.0136687,0.598241834 42.7664734,0.398203987 L42.94124,0.351645473 L42.8794179,2.68167693 L42.7990487,2.71489959 C42.3360955,2.90651479 41.9121379,3.1739338 41.5385887,3.51013774 L41.3885513,3.64536801 L40.5889045,1.42787247" id="Fill-13" fill="#5D5E5C"></path>
            <path d="M45.6207579,2.51626552 C45.2581466,2.42314849 44.8834087,2.37612205 44.5072445,2.37612205 C44.3816979,2.37612205 44.2544866,2.38150318 44.1291779,2.39203149 L43.9265913,2.40911074 L44.6637021,0.171728395 L44.7654713,0.175705756 C45.5475221,0.204951055 46.3091245,0.367320953 47.0284021,0.658136206 L47.1960355,0.725751334 L45.7049313,2.53779005 L45.6207579,2.51626552" id="Fill-14" fill="#5D5E5C"></path>
            <path d="M6.70572207,19.2620409 C6.70572207,17.4634496 7.98010082,16.1438801 9.78773025,16.1438801 C11.5953597,16.1438801 12.8697384,17.4634496 12.8697384,19.2620409 C12.8697384,21.0606322 11.5953597,22.3802016 9.78773025,22.3802016 C7.98010082,22.3802016 6.70572207,21.0606322 6.70572207,19.2620409 Z M11.7851608,19.2620409 C11.7851608,18.0147766 10.998842,17.0838474 9.78773025,17.0838474 C8.56758038,17.0838474 7.79029973,18.0147766 7.79029973,19.2620409 C7.79029973,20.500267 8.56758038,21.4402343 9.78773025,21.4402343 C10.998842,21.4402343 11.7851608,20.500267 11.7851608,19.2620409 Z M17.2858937,22.2717439 L18.2348992,22.2717439 L18.2348992,17.9063188 L14.3304196,17.9063188 L14.3304196,22.2717439 L15.2794251,22.2717439 L15.2794251,18.7378283 L17.2858937,18.7378283 L17.2858937,22.2717439 Z M19.4786649,21.4402343 L19.4786649,22.3802016 C20.4367084,22.3802016 21.1236076,21.729455 21.2862943,19.0360872 L21.3043706,18.7378283 L22.8860463,18.7378283 L22.8860463,22.2717439 L23.8350518,22.2717439 L23.8350518,17.9063188 L20.4638229,17.9063188 L20.3915177,18.9908965 C20.2649837,20.8889074 19.9396104,21.4402343 19.4786649,21.4402343 Z M28.1969782,22.2717439 L28.1969782,21.8017602 C27.8716049,22.1723243 27.3654687,22.3802016 26.7870273,22.3802016 C26.0730137,22.3802016 25.2686186,21.9011798 25.2686186,20.9340981 C25.2686186,19.9308638 26.0730137,19.515109 26.7870273,19.515109 C27.3745068,19.515109 27.8806431,19.7049101 28.1969782,20.0754741 L28.1969782,19.4247275 C28.1969782,18.9185913 27.7812235,18.6112943 27.1756676,18.6112943 C26.6876077,18.6112943 26.2628147,18.7920572 25.8832126,19.1626213 L25.4945722,18.5028365 C26.0007085,18.0238147 26.6333788,17.797861 27.3293161,17.797861 C28.2963978,17.797861 29.1459837,18.2045777 29.1459837,19.3795368 L29.1459837,22.2717439 L28.1969782,22.2717439 Z M28.1969782,21.2775477 L28.1969782,20.6177629 C27.9800627,20.3195041 27.5733461,20.1658556 27.1575913,20.1658556 C26.6243406,20.1658556 26.2266622,20.4731526 26.2266622,20.9521744 C26.2266622,21.422158 26.6243406,21.729455 27.1575913,21.729455 C27.5733461,21.729455 27.9800627,21.5758065 28.1969782,21.2775477 Z M31.6370136,17.9063188 L30.6880082,17.9063188 L30.6880082,19.4337657 C30.6880082,20.3285422 31.1489537,20.8166022 32.3781417,20.8166022 C32.9023542,20.8166022 33.3452234,20.7081444 33.6344441,20.5816104 L33.6344441,22.2717439 L34.5834496,22.2717439 L34.5834496,17.9063188 L33.6344441,17.9063188 L33.6344441,19.8133678 C33.4084905,19.9127875 33.0921553,19.9760545 32.6764005,19.9760545 C31.9804632,19.9760545 31.6370136,19.7681771 31.6370136,19.0903161 L31.6370136,17.9063188 Z M36.2791226,22.2717439 L37.1919755,22.2717439 L39.2345967,19.2530027 L39.2345967,22.2717439 L40.1836022,22.2717439 L40.1836022,17.9063188 L39.2345967,17.9063188 L37.2281281,20.8437166 L37.2281281,17.9063188 L36.2791226,17.9063188 L36.2791226,22.2717439 Z M41.8792752,22.2717439 L41.8792752,17.9063188 L44.3286131,17.9063188 C45.3228093,17.9063188 45.7837548,18.4034169 45.7837548,19.027049 C45.7837548,19.5512616 45.4493433,19.9037493 45.0516649,20.0212452 C45.5216485,20.129703 45.8741362,20.5725722 45.8741362,21.0877466 C45.8741362,21.7656076 45.4041526,22.2717439 44.3557275,22.2717439 L41.8792752,22.2717439 Z M44.816673,19.1897357 C44.816673,18.9185913 44.6359101,18.7378283 44.3286131,18.7378283 L42.8282807,18.7378283 L42.8282807,19.6235668 L44.3286131,19.6235668 C44.6359101,19.6235668 44.816673,19.4337657 44.816673,19.1897357 Z M44.8980163,20.9521744 C44.8980163,20.6900681 44.7082153,20.4550763 44.3557275,20.4550763 L42.8282807,20.4550763 L42.8282807,21.4402343 L44.3557275,21.4402343 C44.690139,21.4402343 44.8980163,21.2594714 44.8980163,20.9521744 Z M49.9649183,22.2717439 L49.9649183,21.8017602 C49.639545,22.1723243 49.1334087,22.3802016 48.5549673,22.3802016 C47.8409537,22.3802016 47.0365586,21.9011798 47.0365586,20.9340981 C47.0365586,19.9308638 47.8409537,19.515109 48.5549673,19.515109 C49.1424469,19.515109 49.6485831,19.7049101 49.9649183,20.0754741 L49.9649183,19.4247275 C49.9649183,18.9185913 49.5491635,18.6112943 48.9436076,18.6112943 C48.4555477,18.6112943 48.0307548,18.7920572 47.6511526,19.1626213 L47.2625123,18.5028365 C47.7686485,18.0238147 48.4013188,17.797861 49.0972561,17.797861 C50.0643379,17.797861 50.9139237,18.2045777 50.9139237,19.3795368 L50.9139237,22.2717439 L49.9649183,22.2717439 Z M49.9649183,21.2775477 L49.9649183,20.6177629 C49.7480027,20.3195041 49.3412861,20.1658556 48.9255313,20.1658556 C48.3922807,20.1658556 47.9946022,20.4731526 47.9946022,20.9521744 C47.9946022,21.422158 48.3922807,21.729455 48.9255313,21.729455 C49.3412861,21.729455 49.7480027,21.5758065 49.9649183,21.2775477 Z M54.5618365,17.2646104 C55.2125831,17.2646104 55.7819864,16.9573134 56.1435123,16.4692534 L55.6192997,16.0354223 C55.3752698,16.3788719 55.0047057,16.5957875 54.5618365,16.5957875 C54.1099292,16.5957875 53.7484033,16.3788719 53.4953351,16.0354223 L52.9711226,16.4692534 C53.3416866,16.9573134 53.9201281,17.2646104 54.5618365,17.2646104 Z M52.6095967,22.2717439 L53.5224496,22.2717439 L55.5650708,19.2530027 L55.5650708,22.2717439 L56.5140763,22.2717439 L56.5140763,17.9063188 L55.5650708,17.9063188 L53.5586022,20.8437166 L53.5586022,17.9063188 L52.6095967,17.9063188 L52.6095967,22.2717439 Z M59.0051063,22.2717439 L59.9541117,22.2717439 L59.9541117,18.7378283 L61.2104142,18.7378283 L61.2104142,17.9063188 L57.757842,17.9063188 L57.757842,18.7378283 L59.0051063,18.7378283 L59.0051063,22.2717439 Z M62.1830354,20.0845123 C62.1830354,18.8191717 63.1049264,17.797861 64.3973815,17.797861 C65.7079128,17.797861 66.5484605,18.8010954 66.5484605,20.1748937 L66.5484605,20.4008474 L63.1772316,20.4008474 C63.2495368,21.0606322 63.7466349,21.602921 64.5691063,21.602921 C64.9938992,21.602921 65.5000354,21.4311962 65.8073324,21.1238992 L66.2411635,21.7475313 C65.8073324,22.1632861 65.165624,22.3802016 64.4696866,22.3802016 C63.1591553,22.3802016 62.1830354,21.4673488 62.1830354,20.0845123 Z M64.3973815,18.5751417 C63.5839482,18.5751417 63.2133842,19.1987738 63.1681935,19.7320245 L65.6265695,19.7320245 C65.6084932,19.2168501 65.2560054,18.5751417 64.3973815,18.5751417 Z M71.5395586,17.9063188 L70.5905531,17.9063188 L70.5905531,19.4337657 C70.5905531,20.3285422 71.0514986,20.8166022 72.2806866,20.8166022 C72.8048992,20.8166022 73.2477684,20.7081444 73.5369891,20.5816104 L73.5369891,22.2717439 L74.4859946,22.2717439 L74.4859946,17.9063188 L73.5369891,17.9063188 L73.5369891,19.8133678 C73.3110354,19.9127875 72.9947003,19.9760545 72.5789455,19.9760545 C71.8830082,19.9760545 71.5395586,19.7681771 71.5395586,19.0903161 L71.5395586,17.9063188 Z M78.847921,22.2717439 L78.847921,21.8017602 C78.5225477,22.1723243 78.0164114,22.3802016 77.43797,22.3802016 C76.7239564,22.3802016 75.9195613,21.9011798 75.9195613,20.9340981 C75.9195613,19.9308638 76.7239564,19.515109 77.43797,19.515109 C78.0254496,19.515109 78.5315858,19.7049101 78.847921,20.0754741 L78.847921,19.4247275 C78.847921,18.9185913 78.4321662,18.6112943 77.8266104,18.6112943 C77.3385504,18.6112943 76.9137575,18.7920572 76.5341553,19.1626213 L76.145515,18.5028365 C76.6516512,18.0238147 77.2843215,17.797861 77.9802589,17.797861 C78.9473406,17.797861 79.7969264,18.2045777 79.7969264,19.3795368 L79.7969264,22.2717439 L78.847921,22.2717439 Z M78.847921,21.2775477 L78.847921,20.6177629 C78.6310054,20.3195041 78.2242888,20.1658556 77.8085341,20.1658556 C77.2752834,20.1658556 76.8776049,20.4731526 76.8776049,20.9521744 C76.8776049,21.422158 77.2752834,21.729455 77.8085341,21.729455 C78.2242888,21.729455 78.6310054,21.5758065 78.847921,21.2775477 Z M81.221455,20.0845123 C81.221455,21.4131199 82.1523842,22.3802016 83.4809918,22.3802016 C84.3305777,22.3802016 84.845752,22.0186757 85.153049,21.602921 L84.5294169,21.0244796 C84.2853869,21.358891 83.9509755,21.539654 83.5261826,21.539654 C82.7308256,21.539654 82.2066131,20.9340981 82.2066131,20.0845123 C82.2066131,19.2349264 82.7308256,18.6384087 83.5261826,18.6384087 C83.9509755,18.6384087 84.2853869,18.8101335 84.5294169,19.1535831 L85.153049,18.5751417 C84.845752,18.1593869 84.3305777,17.797861 83.4809918,17.797861 C82.1523842,17.797861 81.221455,18.7649428 81.221455,20.0845123 Z M87.2464005,22.2717439 L88.195406,22.2717439 L88.195406,18.7378283 L89.4517084,18.7378283 L89.4517084,17.9063188 L85.9991362,17.9063188 L85.9991362,18.7378283 L87.2464005,18.7378283 L87.2464005,22.2717439 Z M90.5418256,22.2717439 L91.6173651,20.6448774 C91.0479619,20.5183433 90.5960545,20.0483597 90.5960545,19.2981935 C90.5960545,18.5480272 91.1021907,17.9063188 92.042158,17.9063188 L94.5366866,17.9063188 L94.5366866,22.2717439 L93.5876812,22.2717439 L93.5876812,20.6900681 L92.5844469,20.6900681 L91.6264033,22.2717439 L90.5418256,22.2717439 Z M93.5876812,19.8585586 L93.5876812,18.7378283 L92.159654,18.7378283 C91.7981281,18.7378283 91.5631362,18.9728202 91.5631362,19.2981935 C91.5631362,19.6235668 91.7800518,19.8585586 92.159654,19.8585586 L93.5876812,19.8585586 Z M100.353755,22.2717439 L101.30276,22.2717439 L101.30276,17.9063188 L100.055496,17.9063188 L98.772079,20.8166022 L97.4705858,17.9063188 L96.2323597,17.9063188 L96.2323597,22.2717439 L97.1813651,22.2717439 L97.1813651,19.144545 L98.5822779,22.2717439 L98.9618801,22.2717439 L100.353755,19.144545 L100.353755,22.2717439 Z M102.998433,22.2717439 L103.911286,22.2717439 L105.953907,19.2530027 L105.953907,22.2717439 L106.902913,22.2717439 L106.902913,17.9063188 L105.953907,17.9063188 L103.947439,20.8437166 L103.947439,17.9063188 L102.998433,17.9063188 L102.998433,22.2717439 Z" id="Оплачивайте-частями" fill="#5D5E5C"></path>
            <rect id="Rectangle-Copy-4" fill="#EC6B25" x="0" y="11.0790191" width="2.33242507" height="11.6621253" rx="1.16621253"></rect>
        </g>
    </g>
</svg>