<?xml version="1.0" encoding="UTF-8" standalone="no"?>
<svg width="39px" height="39px" viewBox="0 0 39 39" version="1.1" xmlns="http://www.w3.org/2000/svg" xmlns:xlink="http://www.w3.org/1999/xlink">
    <!-- Generator: Sketch 3.7.1 (28215) - http://www.bohemiancoding.com/sketch -->
    <title>close_hover</title>
    <desc>Created with Sketch.</desc>
    <defs></defs>
    <g id="ui-kit" stroke="none" stroke-width="1" fill="none" fill-rule="evenodd">
        <g id="mobile" transform="translate(-263.000000, -1288.000000)" fill="#000000">
            <g id="close_hover" transform="translate(263.000000, 1288.000000)">
                <path d="M19.5,39 C30.2695526,39 39,30.2695526 39,19.5 C39,8.73044738 30.2695526,0 19.5,0 C8.73044738,0 0,8.73044738 0,19.5 C0,30.2695526 8.73044738,39 19.5,39 L19.5,39 Z M19.5,38 C9.28273213,38 1,29.7172679 1,19.5 C1,9.28273213 9.28273213,1 19.5,1 C29.7172679,1 38,9.28273213 38,19.5 C38,29.7172679 29.7172679,38 19.5,38 L19.5,38 Z" id="Oval-1"></path>
                <polygon id="Path-23" points="13.1464466 13.8535534 25.8988974 26.6060041 26.6060041 25.8988974 13.8535534 13.1464466"></polygon>
                <polygon id="Path-23" points="25.8988974 13.1464466 13.1464466 25.8988974 13.8535534 26.6060041 26.6060041 13.8535534"></polygon>
            </g>
        </g>
    </g>
</svg>