<?xml version="1.0" encoding="UTF-8" standalone="no"?>
<svg width="101px" height="18px" viewBox="0 0 101 18" version="1.1" xmlns="http://www.w3.org/2000/svg" xmlns:xlink="http://www.w3.org/1999/xlink">
    <!-- Generator: Sketch 3.7.2 (28276) - http://www.bohemiancoding.com/sketch -->
    <title>REVO+_CYR_ORNG</title>
    <desc>Created with Sketch.</desc>
    <defs></defs>
    <g id="Page-1" stroke="none" stroke-width="1" fill="none" fill-rule="evenodd">
        <g id="REVO+_CYR_ORNG">
            <path d="M8.53809111,4.898 C8.53809111,4.06577778 8.29703778,3.45044444 7.81560444,3.05111111 C7.33349778,2.65222222 6.72278444,2.45244444 5.98279111,2.45244444 L2.18878222,2.45244444 L2.18878222,10.2213333 L5.98279111,10.2213333 C6.70572667,10.2213333 7.3124,10.0222222 7.80258667,9.62288889 C8.29299778,9.224 8.53809111,8.59155556 8.53809111,7.72533333 L8.53809111,4.898 L8.53809111,4.898 Z M5.99738,0.459111111 C7.39432222,0.459111111 8.52013556,0.829777778 9.37414667,1.57088889 C10.2274844,2.312 10.6550511,3.40688889 10.6550511,4.85466667 L10.6550511,7.768 C10.6550511,8.518 10.53834,9.16955556 10.3051422,9.72311111 C10.0719444,10.2768889 9.74852,10.7453333 9.33464444,11.1284444 C8.91987111,11.512 8.43237778,11.7973333 7.87171556,11.9848889 C7.31060444,12.1722222 6.71088889,12.2657778 6.07234444,12.2657778 L2.18878222,12.2657778 L2.18878222,17.0191111 C2.18878222,17.2575556 2.10686,17.4535556 1.94368889,17.6068889 C1.77984444,17.7604444 1.51769333,17.8368889 1.15633778,17.8368889 C0.794757778,17.8368889 0.523853333,17.7644444 0.343175556,17.6197778 C0.162722222,17.4748889 0.0722711111,17.2828889 0.0722711111,17.0446667 L0.0722711111,1.58377778 C0.0722711111,1.34533333 0.154417778,1.098 0.317813333,0.842666667 C0.481657778,0.586888889 0.735953333,0.459111111 1.08137333,0.459111111 L5.99738,0.459111111 L5.99738,0.459111111 Z" id="Fill-2" fill="#EC6B25"></path>
            <path d="M20.4372378,5.008 C20.4372378,4.13933333 20.1872067,3.50911111 19.6884911,3.11688889 C19.1891022,2.72533333 18.5788378,2.52911111 17.8561267,2.52911111 L16.9525133,2.52911111 C16.2814244,2.52911111 15.6918089,2.72955556 15.1845644,3.12977778 C14.6770956,3.53022222 14.4232489,4.15644444 14.4232489,5.008 L14.4232489,5.67244444 L20.4372378,5.67244444 L20.4372378,5.008 L20.4372378,5.008 Z M14.4232489,7.41022222 L14.4232489,7.94688889 C14.4232489,8.67977778 14.6638533,9.25466667 15.14596,9.67177778 C15.6273933,10.0895556 16.24686,10.2982222 17.00436,10.2982222 L20.6176911,10.2982222 C20.82418,10.2982222 21.0181,10.3662222 21.1985533,10.5026667 C21.3792311,10.6391111 21.4694578,10.8857778 21.4694578,11.2435556 C21.4694578,11.5846667 21.3747422,11.8402222 21.1855356,12.0104444 C20.9961044,12.1806667 20.8071222,12.2657778 20.6176911,12.2657778 L16.8494933,12.2657778 C16.1950133,12.2657778 15.5932778,12.1684444 15.0424911,11.9726667 C14.49148,11.7771111 14.0140867,11.4966667 13.6100867,11.1311111 C13.2054133,10.7655556 12.8876,10.3106667 12.6553,9.76688889 C12.423,9.22311111 12.3067378,8.59377778 12.3067378,7.88 L12.3067378,5.02355556 C12.3067378,4.30977778 12.4313044,3.668 12.6806622,3.09866667 C12.93002,2.52911111 13.2655644,2.05311111 13.68752,1.67066667 C14.1088022,1.288 14.6077422,0.995111111 15.1845644,0.791111111 C15.7611622,0.586888889 16.3848933,0.484666667 17.0559822,0.484666667 L17.9591467,0.484666667 C18.5788378,0.484666667 19.16374,0.582666667 19.7143022,0.777777778 C20.2648644,0.973111111 20.7510111,1.26177778 21.1727422,1.64355556 C21.5940244,2.02533333 21.9297933,2.50044444 22.1791511,3.06911111 C22.4287333,3.63777778 22.5535244,4.28688889 22.5535244,5.01688889 L22.5535244,6.28977778 C22.5535244,6.51066667 22.4716022,6.75266667 22.3086556,7.01577778 C22.1445867,7.27888889 21.8395667,7.41022222 21.3920244,7.41022222 L14.4232489,7.41022222 L14.4232489,7.41022222 Z" id="Fill-3" fill="#EC6B25"></path>
            <path d="M26.4247422,6.89911111 L26.4247422,10.2213333 L30.6402578,10.2213333 C31.1885756,10.2213333 31.6471156,10.0782222 32.0154289,9.79066667 C32.3835178,9.50311111 32.5680111,9.08066667 32.5680111,8.52244444 C32.5680111,8.16733333 32.4050644,7.808 32.0798444,7.44466667 C31.7537267,7.08133333 31.2570311,6.89911111 30.58886,6.89911111 L26.4247422,6.89911111 L26.4247422,6.89911111 Z M26.4247422,2.40133333 L26.4247422,5.03355556 L30.6642733,5.03355556 C31.04134,5.03355556 31.3708244,4.90577778 31.6536244,4.65022222 C31.9359756,4.39466667 32.0776,4.07133333 32.0776,3.67911111 C32.0776,3.30466667 31.9276711,2.998 31.6278133,2.75933333 C31.3279556,2.52088889 30.9212622,2.40133333 30.4075089,2.40133333 L26.4247422,2.40133333 L26.4247422,2.40133333 Z M25.3433689,12.2657778 C24.9638333,12.2657778 24.6962956,12.1764444 24.5412044,11.9973333 C24.3858889,11.8186667 24.3084556,11.5591111 24.3084556,11.218 L24.3084556,1.48155556 C24.3084556,1.10688889 24.38544,0.838444444 24.5398578,0.676444444 C24.6945,0.514666667 24.9606911,0.433555556 25.3382067,0.433555556 L30.7444,0.433555556 C31.2249356,0.433555556 31.67562,0.502 32.0960044,0.638 C32.5163889,0.774666667 32.88156,0.979111111 33.1901711,1.25133333 C33.4992311,1.524 33.7438756,1.852 33.92388,2.23533333 C34.10366,2.61866667 34.1941111,3.06577778 34.1941111,3.57688889 C34.1941111,3.96911111 34.0875,4.39066667 33.8754,4.842 C33.6626267,5.29355556 33.3185533,5.63866667 32.8425067,5.87688889 C33.3686044,6.08133333 33.8073933,6.40533333 34.1579756,6.848 C34.5092311,7.29133333 34.6845222,7.87044444 34.6845222,8.58577778 C34.6845222,9.21644444 34.5723,9.76133333 34.3483044,10.2213333 C34.12386,10.6813333 33.8302867,11.0646667 33.4680333,11.3715556 C33.1060044,11.678 32.6874156,11.904 32.21294,12.0486667 C31.7386889,12.1935556 31.2516444,12.2657778 30.7515822,12.2657778 L25.3433689,12.2657778 L25.3433689,12.2657778 Z" id="Fill-4" fill="#EC6B25"></path>
            <path d="M59.4625156,12.3168889 C59.0964467,12.3168889 58.83048,12.2317778 58.6650644,12.0613333 C58.4998733,11.8913333 58.4170533,11.7124444 58.4170533,11.5246667 L58.4170533,2.50355556 L52.1193667,2.50355556 L52.1193667,11.5246667 C52.1193667,11.6953333 52.0374444,11.8697778 51.8740489,12.0486667 C51.7104289,12.2273333 51.4390756,12.3168889 51.0608867,12.3168889 C50.7165889,12.3168889 50.4544378,12.2273333 50.2739844,12.0486667 C50.0928578,11.8697778 50.0026311,11.6868889 50.0026311,11.4991111 L50.0026311,1.60911111 C50.0026311,1.388 50.0845533,1.14088889 50.2483978,0.868 C50.4120178,0.595777778 50.7183844,0.459111111 51.1668244,0.459111111 L59.3691467,0.459111111 C59.8175867,0.459111111 60.1239533,0.595777778 60.2875733,0.868 C60.4514178,1.14088889 60.5335644,1.388 60.5335644,1.60911111 L60.5335644,11.5246667 C60.5335644,11.6953333 60.45052,11.8697778 60.2853289,12.0486667 C60.1196889,12.2273333 59.8456422,12.3168889 59.4625156,12.3168889" id="Fill-5" fill="#EC6B25"></path>
            <path d="M72.3032067,12.3168889 C71.9250178,12.3168889 71.6536644,12.2364444 71.4904933,12.0742222 C71.3266489,11.9124444 71.2449511,11.6357778 71.2449511,11.2435556 L71.2449511,2.58022222 L67.0637756,2.58022222 L66.4957067,8.58577778 C66.4445333,9.02911111 66.3706911,9.48022222 66.2766489,9.94022222 C66.1819333,10.4002222 66.0183133,10.8135556 65.7860133,11.1797778 C65.5537133,11.5464444 65.2350022,11.8484444 64.8312267,12.0868889 C64.4265533,12.3253333 63.9058422,12.4448889 63.2693178,12.4448889 L62.98562,12.4448889 C62.6929444,12.4448889 62.4606444,12.368 62.28872,12.2148889 C62.1163467,12.0613333 62.0306089,11.8146667 62.0306089,11.4735556 C62.0306089,11.1502222 62.1208356,10.9075556 62.3015133,10.7453333 C62.4824156,10.5835556 62.6929444,10.5026667 62.9339978,10.5026667 L63.1404867,10.5026667 C63.58758,10.5026667 63.8975378,10.3235556 64.0696867,9.96577778 C64.2416111,9.608 64.3704422,9.08022222 64.4568533,8.38133333 L65.1021311,1.50688889 C65.1362467,1.11533333 65.2309622,0.838444444 65.3862778,0.676444444 C65.54092,0.514666667 65.8158644,0.433555556 66.2120089,0.433555556 L72.3290178,0.433555556 C72.7249378,0.433555556 73.0086356,0.514666667 73.1807844,0.676444444 C73.3527089,0.838444444 73.43912,1.11533333 73.43912,1.50688889 L73.43912,11.2435556 C73.43912,11.6357778 73.3486689,11.9124444 73.1682156,12.0742222 C72.9875378,12.2364444 72.6991267,12.3168889 72.3032067,12.3168889" id="Fill-6" fill="#EC6B25"></path>
            <path d="M87.5833844,4.95688889 C87.5833844,4.07133333 87.3423311,3.428 86.8608978,3.02755556 C86.3787911,2.62733333 85.7680778,2.42688889 85.0280844,2.42688889 L84.5892956,2.42688889 C83.8493022,2.42688889 83.2426289,2.63133333 82.7697244,3.04022222 C82.2963711,3.44911111 82.0600311,4.088 82.0600311,4.95688889 L82.0600311,7.87044444 C82.0600311,8.72244444 82.3006356,9.34422222 82.7827422,9.736 C83.2641756,10.128 83.8670333,10.3235556 84.5892956,10.3235556 L84.9250644,10.3235556 C85.6821156,10.3235556 86.3143756,10.132 86.8220689,9.74866667 C87.3295378,9.36533333 87.5833844,8.73911111 87.5833844,7.87044444 L87.5833844,4.95688889 L87.5833844,4.95688889 Z M84.4604644,12.2657778 C83.8409978,12.2657778 83.2601356,12.1722222 82.7178778,11.9848889 C82.1760689,11.7973333 81.6986756,11.5208889 81.2859222,11.154 C80.8729444,10.788 80.54548,10.3282222 80.3046511,9.77422222 C80.0635978,9.22066667 79.94352,8.57755556 79.94352,7.84466667 L79.94352,7.078 L78.0853444,7.078 L78.0853444,11.346 C78.0853444,11.7377778 78.00634,12.0062222 77.8499022,12.1508889 C77.6930156,12.2953333 77.4230089,12.368 77.0398822,12.368 C76.8827711,12.368 76.7521444,12.3424444 76.6482267,12.2915556 C76.1946244,12.2235556 75.9683844,11.908 75.9683844,11.346 L75.9683844,1.40466667 C75.9683844,0.740222222 76.3257,0.408 77.0398822,0.408 C77.1269667,0.408 77.19632,0.412444444 77.2483911,0.420888889 C77.3011356,0.429555556 77.3532067,0.442444444 77.4052778,0.459111111 C77.8582067,0.543777778 78.0853444,0.857333333 78.0853444,1.39955556 L78.0853444,5.03355556 L79.9448667,5.03355556 C79.9614756,4.89822222 79.9702289,4.76688889 79.9702289,4.63977778 C79.9702289,4.51288889 79.9868378,4.39 80.0211778,4.27133333 C80.1583133,3.03466667 80.6489489,2.09044444 81.4921867,1.43777778 C82.3347511,0.785333333 83.3847022,0.459111111 84.6411422,0.459111111 L85.0799311,0.459111111 C85.75102,0.459111111 86.3704867,0.557333333 86.9381067,0.753111111 C87.5061756,0.949111111 87.9918733,1.23466667 88.3965467,1.60911111 C88.8007711,1.98422222 89.1194822,2.45688889 89.3517822,3.02755556 C89.5840822,3.59844444 89.7003444,4.25022222 89.7003444,4.98244444 L89.7003444,7.84466667 C89.7003444,8.57755556 89.5793689,9.22066667 89.33854,9.77422222 C89.0974867,10.3282222 88.7666556,10.788 88.3449244,11.154 C87.9231933,11.5208889 87.4325578,11.7973333 86.8736911,11.9848889 C86.3143756,12.1722222 85.7252089,12.2657778 85.1057422,12.2657778 L84.4604644,12.2657778 L84.4604644,12.2657778 Z" id="Fill-7" fill="#EC6B25"></path>
            <path d="M96.5656511,12.2657778 C95.87728,12.2657778 95.2495089,12.1722222 94.68144,11.9857778 C94.11382,11.7986667 93.6231844,11.5224444 93.2102067,11.1566667 C92.7974533,10.7913333 92.4787422,10.3324444 92.2556444,9.77977778 C92.0316489,9.22711111 91.9196511,8.58533333 91.9196511,7.85422222 L91.9196511,4.97288889 C91.9196511,4.24222222 92.0359133,3.59622222 92.2682133,3.03511111 C92.5005133,2.474 92.8232644,2.002 93.2362422,1.61955556 C93.64922,1.23688889 94.1353667,0.952444444 94.6946822,0.765333333 C95.2535489,0.578666667 95.8597733,0.484666667 96.5142533,0.484666667 L99.9729422,0.484666667 C100.144867,0.484666667 100.325544,0.573333333 100.514751,0.75 C100.704182,0.926444444 100.798898,1.18311111 100.798898,1.51977778 C100.798898,1.87311111 100.708671,2.13 100.527993,2.28955556 C100.346867,2.44933333 100.161924,2.52911111 99.9729422,2.52911111 L96.5914622,2.52911111 C95.8514689,2.52911111 95.2403067,2.74244444 94.7590978,3.168 C94.2767667,3.594 94.0361622,4.21577778 94.0361622,5.03355556 L94.0361622,7.768 C94.0361622,8.58577778 94.2767667,9.19933333 94.7590978,9.608 C95.2403067,10.0168889 95.8514689,10.2213333 96.5914622,10.2213333 L100.101998,10.2213333 C100.291204,10.2213333 100.476371,10.3024444 100.656824,10.4642222 C100.837502,10.6262222 100.927729,10.8857778 100.927729,11.2435556 C100.927729,11.5846667 100.833013,11.8402222 100.644256,12.0104444 C100.454376,12.1806667 100.265393,12.2657778 100.075962,12.2657778 L96.5656511,12.2657778" id="Fill-8" fill="#EC6B25"></path>
            <path d="M42.0133067,12.392 C40.32728,12.392 38.7595356,11.7253333 37.5996067,10.5148889 C35.7059689,8.53933333 35.3872578,5.54 36.8241511,3.22111111 L36.8935044,3.10977778 L36.9027067,3.11577778 C37.067,2.92222222 37.3082778,2.81 37.5695311,2.81 C37.7300089,2.81 37.8873444,2.854 38.02448,2.93733333 C38.4338667,3.186 38.5631467,3.71822222 38.3119933,4.124 C37.2880778,5.78888889 37.5185822,7.92288889 38.8643511,9.32666667 C39.6916533,10.19 40.8093867,10.6651111 42.01196,10.6651111 C42.7326511,10.6651111 43.44616,10.4866667 44.0761756,10.1493333 L44.0977222,10.1377778 L44.1239822,10.1262222 L44.1235333,10.1255556 C44.1432844,10.1162222 44.1634844,10.1073333 44.1839089,10.0993333 L44.2085978,10.0884444 L44.2099444,10.09 C44.3028644,10.0575556 44.3996,10.0411111 44.4992533,10.0411111 C44.8190867,10.0411111 45.1124356,10.2135556 45.2646089,10.4915556 C45.3759333,10.694 45.4008467,10.9275556 45.3346356,11.1484444 C45.2789733,11.3351111 45.1642822,11.4942222 45.0067222,11.6053333 L45.0085178,11.6115556 L44.9155978,11.6631111 C44.0301644,12.14 43.0266733,12.392 42.0133067,12.392" id="Fill-9" fill="#EC6B25"></path>
            <path d="M45.2738111,8.91711111 L45.3234133,8.85222222 C45.6113756,8.47733333 45.8295356,8.05955556 45.9725067,7.61044444 L46.0304133,7.42888889 L47.7483111,8.87977778 L47.7081356,8.96644444 C47.4010956,9.62666667 46.9816089,10.2244444 46.4608978,10.7426667 L46.3403711,10.8626667 L45.2738111,8.91711111" id="Fill-10" fill="#5D5E5C"></path>
            <path d="M46.1233333,6.37533333 L46.1237822,6.29377778 C46.1242311,6.16111111 46.1177222,6.02488889 46.10448,5.88933333 C46.0719356,5.55666667 45.9992156,5.22866667 45.8874422,4.91511111 L45.8239244,4.736 L48.0753267,4.87088889 L48.0959756,4.964 C48.1484956,5.20377778 48.1871,5.44755556 48.2104422,5.68888889 C48.2573511,6.16733333 48.2477,6.65088889 48.1823867,7.126 L48.1594933,7.294 L46.1233333,6.37533333" id="Fill-11" fill="#5D5E5C"></path>
            <path d="M45.2917667,3.84511111 C45.2098444,3.74066667 45.1202911,3.63733333 45.0251267,3.538 C44.7923778,3.29555556 44.5311244,3.08155556 44.2483244,2.90266667 L44.0867244,2.80044444 L45.9449,1.534 L46.0189667,1.59488889 C46.2092956,1.75155556 46.3910956,1.92022222 46.5598778,2.09622222 C46.8940756,2.44511111 47.1872,2.832 47.4313956,3.246 L47.5178067,3.39244444 L45.3422667,3.90933333 L45.2917667,3.84511111" id="Fill-12" fill="#5D5E5C"></path>
            <path d="M38.3128911,1.35622222 L38.3914467,1.30111111 C38.9927333,0.878666667 39.6577622,0.568222222 40.3683533,0.378222222 L40.53332,0.334 L40.4749644,2.54711111 L40.3991022,2.57866667 C39.9621089,2.76066667 39.5619244,3.01466667 39.2093222,3.334 L39.0676978,3.46244444 L38.3128911,1.35622222" id="Fill-13" fill="#5D5E5C"></path>
            <path d="M43.0625844,2.39 C42.7203067,2.30155556 42.3665822,2.25688889 42.0115111,2.25688889 C41.8930044,2.25688889 41.7729267,2.262 41.6546444,2.272 L41.4634178,2.28822222 L42.1591956,0.163111111 L42.2552578,0.166888889 C42.9934556,0.194666667 43.7123511,0.348888889 44.3912956,0.625111111 L44.5495289,0.689333333 L43.1420378,2.41044444 L43.0625844,2.39" id="Fill-14" fill="#5D5E5C"></path>
        </g>
    </g>
</svg>